<svg class="icon" style="width: 1.6943359375em;height: 1em;vertical-align: middle;fill: currentColor;overflow: hidden;"
  viewBox="0 0 1735 1024" version="1.1" xmlns="http://www.w3.org/2000/svg">
  <path
    d="M999.442124 1024H301.672212c-90.619469 0-163.115044-72.495575-163.115044-163.115044V163.115044c0-90.619469 72.495575-163.115044 163.115044-163.115044h697.769912c90.619469 0 163.115044 72.495575 163.115044 163.115044v697.769912c3.020649 90.619469-72.495575 163.115044-163.115044 163.115044z"
    fill="#6BC839" />
  <path
    d="M784.976047 389.663717c9.061947 0 18.123894 0 27.185841 3.020649C787.996696 283.941003 673.212035 205.40413 543.32413 205.40413 395.31233 205.40413 277.507021 305.085546 277.507021 431.952802c0 72.495575 39.268437 132.908555 105.722714 181.238938L356.043894 694.749263l93.640118-48.330384c33.227139 6.041298 60.412979 12.082596 93.640118 12.082596h24.165192c-6.041298-18.123894-9.061947-36.247788-9.061947-57.39233 0-117.80531 99.681416-211.445428 226.548672-211.445428z m-141.970501-72.495575c21.144543 0 33.227139 12.082596 33.227138 33.227138 0 21.144543-12.082596 33.227139-33.227138 33.227139-21.144543 0-39.268437-12.082596-39.268437-33.227139-3.020649-21.144543 18.123894-33.227139 39.268437-33.227138zM455.72531 383.622419c-21.144543 0-39.268437-12.082596-39.268437-33.227139 0-21.144543 21.144543-33.227139 39.268437-33.227138 18.123894 0 33.227139 12.082596 33.227138 33.227138 0 21.144543-15.103245 33.227139-33.227138 33.227139z"
    fill="#FFFFFF" />
  <path
    d="M1029.648614 598.088496c0-105.722714-105.722714-193.321534-226.548673-193.321534-126.867257 0-226.548673 87.59882-226.548673 193.321534 0 105.722714 99.681416 193.321534 226.548673 193.321533 27.185841 0 54.371681-6.041298 81.557522-12.082595l72.495575 39.268436-21.144542-66.454277c54.371681-39.268437 93.640118-93.640118 93.640118-154.053097z m-302.064897-33.227139c-12.082596 0-27.185841-12.082596-27.185841-27.185841 0-12.082596 12.082596-27.185841 27.185841-27.18584 21.144543 0 33.227139 12.082596 33.227138 27.18584s-12.082596 27.185841-33.227138 27.185841z m148.011799 0c-12.082596 0-27.185841-12.082596-27.18584-27.185841 0-12.082596 12.082596-27.185841 27.18584-27.18584 21.144543 0 33.227139 12.082596 33.227139 27.18584s-12.082596 27.185841-33.227139 27.185841z"
    fill="#FFFFFF" />
</svg>